<?xml version="1.0" encoding="UTF-8"?>
<svg width="116px" height="113px" viewBox="0 0 116 113" version="1.1" xmlns="http://www.w3.org/2000/svg" xmlns:xlink="http://www.w3.org/1999/xlink">
    <!-- Generator: Sketch 44.1 (41455) - http://www.bohemiancoding.com/sketch -->
    <title>新建云数据中心icon</title>
    <desc>Created with Sketch.</desc>
    <defs>
        <path d="M88.0851064,40.1179425 C88.0851064,30.2879653 79.8579574,22.2760716 70.1025319,22.5137871 C67.9972979,10.0381241 57.114383,0.498688117 44.0425532,0.498688117 C30.9707234,0.498688117 20.0878085,10.0381241 17.9825745,22.5137871 C8.17870213,22.2672673 -0.00440425532,30.2879653 5.30261385e-14,40.1179425 C5.30261385e-14,49.829062 7.90123404,57.7265 17.6170213,57.7265 L70.4680851,57.7265 C80.1838723,57.7265 88.0851064,49.829062 88.0851064,40.1179425" id="path-1"></path>
        <polygon id="path-2" points="0.7423 22 22.42255 22 22.42255 0.276 0.7423 0.276 0.7423 22"></polygon>
    </defs>
    <g id="云数据中心" stroke="none" stroke-width="1" fill="none" fill-rule="evenodd" opacity="0.61">
        <g id="产品注册-产品试用成功" transform="translate(-742.000000, -259.000000)">
            <g id="新建云数据中心icon" transform="translate(743.000000, 259.000000)">
                <g id="Group-20" transform="translate(13.457447, 0.000000)" fill="#CBDBE4" opacity="0.474524457">
                    <ellipse id="Oval" cx="47.1010638" cy="47.2880435" rx="47.1010638" ry="47.2880435"></ellipse>
                </g>
                <g id="Page-1" transform="translate(26.914894, 15.967391)">
                    <g id="Fill-1">
                        <use fill="#F1F1F1" fill-rule="evenodd" xlink:href="#path-1"></use>
                        <path stroke="#D9D9D9" stroke-width="1" d="M87.5851064,40.1179425 C87.5851064,30.5831643 79.6035718,22.7824188 70.1147121,23.0136388 L69.6815925,23.0241928 L69.6095023,22.5969845 C67.5206564,10.2184377 56.7265113,0.998688117 44.0425532,0.998688117 C31.3585951,0.998688117 20.56445,10.2184377 18.4756041,22.5969845 L18.4034572,23.0245283 L17.9700059,23.0136291 C8.45097816,22.7742718 0.495719963,30.5651 0.5,40.1179425 C0.5,49.5528658 8.17732264,57.2265 17.6170213,57.2265 L70.4680851,57.2265 C79.9077837,57.2265 87.5851064,49.5528658 87.5851064,40.1179425 Z"></path>
                    </g>
                </g>
                <path d="M96.6489379,57.6399598 C96.6489379,46.8992153 87.659527,38.1450034 77.0002415,38.4047438 C74.6999533,24.7731854 62.8087143,14.3499013 48.525753,14.3499013 C34.2427918,14.3499013 22.3515528,24.7731854 20.0512645,38.4047438 C9.33904357,38.1353834 0.39775581,46.8992153 0.402568128,57.6399598 C0.402568128,68.2508341 9.0358675,76.8799858 19.6518421,76.8799858 L77.399664,76.8799858 C88.0156386,76.8799858 96.6489379,68.2508341 96.6489379,57.6399598" id="Fill-1" stroke="#D9D9D9" fill="#FFFFFF"></path>
                <ellipse id="Oval-3" fill="#9299AF" cx="33.8214446" cy="43.8752592" rx="4.01026541" ry="4.02618518"></ellipse>
                <ellipse id="Oval-3" fill="#9299AF" cx="63.2300576" cy="43.8752592" rx="5.34702055" ry="5.3682469"></ellipse>
                <path d="M37.2629351,58.6739967 C39.7126813,61.4692618 43.3023421,63.2331277 47.3023468,63.2331277 C51.5624336,63.2331277 55.35708,61.2324302 57.8049511,58.1158689" id="Oval-7" stroke="#9299AF" stroke-width="3"></path>
                <ellipse id="Oval-5" fill="#8D95A0" cx="56.8882979" cy="92.7336957" rx="20.1861702" ry="20.2663043"></ellipse>
                <g id="Page-1" transform="translate(42.000000, 82.000000)">
                    <path d="M2.7101,9.8734 L12.8511,20.0144 C13.2011,20.3644 13.2011,20.7134 12.8511,21.0634 L11.4521,22.4624 C11.1021,22.8114 10.7531,22.8114 10.4031,22.4624 L0.2621,12.3214 C-0.0869,11.9714 -0.0869,11.6214 0.2621,11.2724 L1.6611,9.8734 C2.0111,9.5234 2.3601,9.5234 2.7101,9.8734" id="Fill-1" fill="#FEFEFE"></path>
                    <g id="Group-5" transform="translate(8.000000, 0.724400)">
                        <mask id="mask-3" fill="white">
                            <use xlink:href="#path-2"></use>
                        </mask>
                        <g id="Clip-4"></g>
                        <path d="M20.7618,0.4068 L22.1608,1.8058 C22.5098,2.1548 22.5098,2.5048 22.1608,2.8548 L3.4518,21.7378 C3.1028,22.0878 2.7528,22.0878 2.4028,21.7378 L1.0048,20.1638 C0.6548,19.8148 0.6548,19.4648 1.0048,19.1148 L19.8878,0.4068 C20.0628,0.2318 20.5868,0.2318 20.7618,0.4068 Z" id="Fill-3" fill="#FEFEFE" mask="url(#mask-3)"></path>
                    </g>
                </g>
            </g>
        </g>
    </g>
</svg>