<svg width="1000" height="94" viewBox="0 0 1000 94" xmlns="http://www.w3.org/2000/svg"><title>Group 23</title><g fill="none" fill-rule="evenodd"><path fill="#E6E6E6" d="M0 35h1000v1H0z"/><path d="M44 93.5c7.456 0 13.5-6.044 13.5-13.5S51.456 66.5 44 66.5 30.5 72.544 30.5 80 36.544 93.5 44 93.5z" stroke="#CBCBCB"/><text font-family="HelveticaNeue, Helvetica Neue" font-size="14" fill="#999" transform="translate(30 66)"><tspan x="10" y="19">1</tspan></text><text font-family=".PingFangSC-Regular, .PingFang SC" font-size="14" fill="#666" transform="translate(30 66)"><tspan x="36" y="17">选择或新建云数据中心</tspan></text><g transform="translate(512 66)"><circle stroke="#CBCBCB" cx="14" cy="14" r="13.5"/><text font-family="HelveticaNeue, Helvetica Neue" font-size="14" fill="#999"><tspan x="10.5" y="19">3</tspan></text><text font-family=".PingFangSC-Regular, .PingFang SC" font-size="14" fill="#666"><tspan x="36" y="18">输入激活码，开通应用</tspan></text></g><g transform="translate(310 65)"><circle stroke="#CBCBCB" cx="14" cy="14" r="13.5"/><text font-family="HelveticaNeue, Helvetica Neue" font-size="14" fill="#999"><tspan x="10" y="18">2</tspan></text><text font-family=".PingFangSC-Regular, .PingFang SC" font-size="14" fill="#666"><tspan x="36" y="19">添加应用</tspan></text></g><text font-family=".PingFangSC-Regular, .PingFang SC" font-size="14" letter-spacing="1" fill="#666" transform="translate(0 -3)"><tspan x="27.88" y="15">开通应用流程说明</tspan></text><path d="M220 79h74M422 79h74M705 79h74" stroke="#E9E9E9"/><g transform="translate(795 65)"><circle stroke-opacity=".25" stroke="#000" cx="14" cy="14" r="13.5"/><text font-family=".PingFangSC-Regular, .PingFang SC" font-size="14" fill="#666"><tspan x="36" y="19">用户管理</tspan></text><text font-family="HelveticaNeue, Helvetica Neue" font-size="14" fill="#999"><tspan x="10" y="19">4</tspan></text></g></g></svg>