<?xml version="1.0" encoding="UTF-8"?>
<svg width="107px" height="91px" viewBox="0 0 107 91" version="1.1" xmlns="http://www.w3.org/2000/svg" xmlns:xlink="http://www.w3.org/1999/xlink">
    <!-- Generator: Sketch 44.1 (41455) - http://www.bohemiancoding.com/sketch -->
    <title>空</title>
    <desc>Created with Sketch.</desc>
    <defs></defs>
    <g id="云数据中心" stroke="none" stroke-width="1" fill="none" fill-rule="evenodd">
        <g id="云数据中心详情-（空）" transform="translate(-767.000000, -303.000000)" fill-rule="nonzero" fill="#DADADA">
            <path d="M859.748255,335.365146 C860.874051,337.44286 858.409291,331.682531 854.045999,331.682531 L786.53822,331.709168 C784.020167,331.709168 782.274851,332.954465 780.809318,335.245278 C779.343785,337.54275 767,356.575145 767,360.604046 L767,386.468925 C767.014692,390.511965 770.303279,393.778615 774.34765,393.767562 L866.209923,393.767562 C870.254294,393.778615 873.542881,390.511965 873.557573,386.468925 L873.557573,360.604046 C873.557573,356.575145 859.748255,335.365146 859.748255,335.365146 C859.748255,335.365146 857.769785,331.682531 859.748255,335.365146 L859.748255,335.365146 Z M835.633575,358.606244 C834.014754,358.524901 832.56066,359.589407 832.149604,361.156772 C832.149604,361.343233 832.17625,361.529695 832.17625,361.716156 C832.17625,368.312384 826.827205,373.659683 820.228825,373.659683 C813.630444,373.659683 808.2814,368.312384 808.2814,361.716156 C808.2814,361.47642 808.308046,361.243343 808.321369,361.003607 C807.468696,358.619563 804.923997,358.606244 804.923997,358.606244 L773.368407,358.606244 L784.053475,338.934552 C784.053475,338.934552 786.01196,335.405102 788.769827,335.511651 L852.413928,335.511651 C854.632212,335.511651 855.011919,336.310772 856.610682,338.934552 L867.468949,358.619563 L835.640237,358.619563 L835.633575,358.606244 Z M797.27658,321.340575 L789.156194,313.635718 C788.286099,312.808201 788.2518,311.432244 789.079587,310.562432 C789.907374,309.69262 791.28378,309.658333 792.153876,310.48585 L800.267599,318.190707 C801.137695,319.016385 801.173485,320.390851 800.347537,321.260663 C799.52159,322.130475 798.146676,322.166253 797.27658,321.340575 L797.27658,321.340575 Z M819.645943,317.937652 C819.228637,317.54111 818.986522,316.994732 818.97313,316.419322 L818.680023,305.23163 C818.648751,304.030812 819.597174,303.032013 820.798384,303.000751 C821.999595,302.96949 822.998719,303.917603 823.029991,305.118422 L823.316437,316.306114 C823.338628,317.183048 822.830712,317.987159 822.029143,318.344105 C821.227573,318.701052 820.289884,318.540681 819.652604,317.937652 L819.645943,317.937652 Z M840.702987,320.941015 C840.285013,320.544589 840.041755,319.998368 840.026763,319.422593 C840.01177,318.846818 840.226272,318.288686 840.623049,317.871059 L848.33042,309.746663 C849.158207,308.876851 850.534613,308.842564 851.404709,309.670081 C852.274805,310.497598 852.309103,311.873554 851.481316,312.743366 L843.773945,320.861102 C843.37739,321.27894 842.830991,321.522119 842.255028,321.537106 C841.679065,321.552094 841.120751,321.337662 840.702987,320.941015 L840.702987,320.941015 Z" id="空"></path>
        </g>
    </g>
</svg>