<?xml version="1.0" encoding="UTF-8"?>
<svg width="116px" height="113px" viewBox="0 0 116 113" version="1.1" xmlns="http://www.w3.org/2000/svg" xmlns:xlink="http://www.w3.org/1999/xlink">
    <!-- Generator: Sketch 44.1 (41455) - http://www.bohemiancoding.com/sketch -->
    <title>新建云数据中心icon</title>
    <desc>Created with Sketch.</desc>
    <defs>
        <path d="M88.0851064,40.1179425 C88.0851064,30.2879653 79.8579574,22.2760716 70.1025319,22.5137871 C67.9972979,10.0381241 57.114383,0.498688117 44.0425532,0.498688117 C30.9707234,0.498688117 20.0878085,10.0381241 17.9825745,22.5137871 C8.17870213,22.2672673 -0.00440425532,30.2879653 5.30261385e-14,40.1179425 C5.30261385e-14,49.829062 7.90123404,57.7265 17.6170213,57.7265 L70.4680851,57.7265 C80.1838723,57.7265 88.0851064,49.829062 88.0851064,40.1179425" id="path-1"></path>
        <polygon id="path-2" points="17.1276596 -0.000491304348 17.1276596 6.14081304 0.000244680851 6.14081304 0.000244680851 -0.000491304348"></polygon>
        <polygon id="path-4" points="17.1276596 0.764838043 17.1276596 6.14093587 0.000244680851 6.14093587 0.000244680851 0.764838043 17.1276596 0.764838043"></polygon>
        <polygon id="path-6" points="0 24.5652174 24.4680851 24.5652174 24.4680851 0 0 0"></polygon>
    </defs>
    <g id="云数据中心" stroke="none" stroke-width="1" fill="none" fill-rule="evenodd" opacity="0.61">
        <g id="云数据中心（无云数据中心）" transform="translate(-762.000000, -169.000000)">
            <g id="新建云数据中心icon" transform="translate(763.000000, 169.000000)">
                <g id="Group-20" transform="translate(13.457447, 0.000000)" fill="#CBDBE4" opacity="0.474524457">
                    <ellipse id="Oval" cx="47.1010638" cy="47.2880435" rx="47.1010638" ry="47.2880435"></ellipse>
                </g>
                <g id="Page-1" transform="translate(26.914894, 15.967391)">
                    <g id="Fill-1">
                        <use fill="#F1F1F1" fill-rule="evenodd" xlink:href="#path-1"></use>
                        <path stroke="#D9D9D9" stroke-width="1" d="M87.5851064,40.1179425 C87.5851064,30.5831643 79.6035718,22.7824188 70.1147121,23.0136388 L69.6815925,23.0241928 L69.6095023,22.5969845 C67.5206564,10.2184377 56.7265113,0.998688117 44.0425532,0.998688117 C31.3585951,0.998688117 20.56445,10.2184377 18.4756041,22.5969845 L18.4034572,23.0245283 L17.9700059,23.0136291 C8.45097816,22.7742718 0.495719963,30.5651 0.5,40.1179425 C0.5,49.5528658 8.17732264,57.2265 17.6170213,57.2265 L70.4680851,57.2265 C79.9077837,57.2265 87.5851064,49.5528658 87.5851064,40.1179425 Z"></path>
                    </g>
                </g>
                <path d="M96.6489379,57.6399598 C96.6489379,46.8992153 87.659527,38.1450034 77.0002415,38.4047438 C74.6999533,24.7731854 62.8087143,14.3499013 48.525753,14.3499013 C34.2427918,14.3499013 22.3515528,24.7731854 20.0512645,38.4047438 C9.33904357,38.1353834 0.39775581,46.8992153 0.402568128,57.6399598 C0.402568128,68.2508341 9.0358675,76.8799858 19.6518421,76.8799858 L77.399664,76.8799858 C88.0156386,76.8799858 96.6489379,68.2508341 96.6489379,57.6399598" id="Fill-1" stroke="#D9D9D9" fill="#FFFFFF"></path>
                <ellipse id="Oval-3" fill="#9299AF" cx="33.8214446" cy="43.8752592" rx="4.01026541" ry="4.02618518"></ellipse>
                <ellipse id="Oval-3" fill="#9299AF" cx="63.2300576" cy="43.8752592" rx="5.34702055" ry="5.3682469"></ellipse>
                <path d="M37.2629351,58.6739967 C39.7126813,61.4692618 43.3023421,63.2331277 47.3023468,63.2331277 C51.5624336,63.2331277 55.35708,61.2324302 57.8049511,58.1158689" id="Oval-7" stroke="#9299AF" stroke-width="3"></path>
                <ellipse id="Oval-5" fill="#8D95A0" cx="56.8882979" cy="92.7336957" rx="20.1861702" ry="20.2663043"></ellipse>
                <g id="Page-1" transform="translate(45.265957, 79.836957)">
                    <g id="Group-3" transform="translate(7.340426, 12.282609)">
                        <mask id="mask-3" fill="white">
                            <use xlink:href="#path-2"></use>
                        </mask>
                        <g id="Clip-2"></g>
                        <path d="M8.56407447,6.14081304 C12.8264149,6.14081304 17.1279043,5.19259565 17.1279043,3.07016087 C17.1279043,0.948954348 12.8264149,-0.000491304348 8.56407447,-0.000491304348 C4.30173404,-0.000491304348 0.000244680851,0.948954348 0.000244680851,3.07016087 C0.000244680851,5.19259565 4.30173404,6.14081304 8.56407447,6.14081304 Z" id="Fill-1" fill="#FFFFFF" mask="url(#mask-3)"></path>
                    </g>
                    <g id="Group-6" transform="translate(7.340426, 18.423913)">
                        <mask id="mask-5" fill="white">
                            <use xlink:href="#path-4"></use>
                        </mask>
                        <g id="Clip-5"></g>
                        <path d="M0.000244680851,0.764838043 L0.000244680851,2.45615326 C0.000244680851,5.00110978 4.30173404,6.14093587 8.56407447,6.14093587 C12.8264149,6.14093587 17.1279043,5.00110978 17.1279043,2.45615326 L17.1279043,0.764838043 C15.2524255,1.86290326 12.3492872,2.45615326 8.56407447,2.45615326 C4.7776383,2.45615326 1.8757234,1.86290326 0.000244680851,0.764838043" id="Fill-4" fill="#FFFFFF" mask="url(#mask-5)"></path>
                    </g>
                    <path d="M8.00024468,4.9995087 L6.00024468,4.9995087 L6.00024468,5.9995087 L8.00024468,5.9995087 L8.00024468,7.9995087 L9.00024468,7.9995087 L9.00024468,5.9995087 L11.0002447,5.9995087 L11.0002447,4.9995087 L9.00024468,4.9995087 L9.00024468,2.9995087 L8.00024468,2.9995087 L8.00024468,4.9995087 Z M3.67045745,9.82559565 C1.64694681,9.82559565 0.000244680851,8.17235652 0.000244680851,6.14081304 C0.000244680851,4.10926957 1.64694681,2.45603043 3.67045745,2.45603043 C3.88332979,2.45603043 4.09375532,2.47568261 4.30051064,2.51130217 C5.14465957,0.985802174 6.75221277,-0.000491304348 8.56652128,-0.000491304348 C10.3808298,-0.000491304348 11.988383,0.984573913 12.8313085,2.51130217 C13.0380638,2.47568261 13.247266,2.45603043 13.4576915,2.45603043 C15.4812021,2.45603043 17.1279043,4.10926957 17.1279043,6.14081304 C17.1279043,8.17235652 15.4812021,9.82559565 13.4576915,9.82559565 L3.67045745,9.82559565 Z" id="Fill-7" fill="#FFFFFF"></path>
                    <mask id="mask-7" fill="white">
                        <use xlink:href="#path-6"></use>
                    </mask>
                    <g id="Clip-11"></g>
                    <polygon id="Fill-10" fill="#FFFFFF" mask="url(#mask-7)" points="0 14.7391304 2.44680851 14.7391304 2.44680851 12.2850652 0 12.2850652"></polygon>
                    <polygon id="Fill-12" fill="#FFFFFF" mask="url(#mask-7)" points="0 19.6509457 2.44680851 19.6509457 2.44680851 17.1968804 0 17.1968804"></polygon>
                    <polygon id="Fill-13" fill="#FFFFFF" mask="url(#mask-7)" points="3.67021277 19.6521739 6.11702128 19.6521739 6.11702128 17.1956522 3.67021277 17.1956522"></polygon>
                </g>
            </g>
        </g>
    </g>
</svg>