<?xml version="1.0" encoding="UTF-8"?>
<svg width="39px" height="50px" viewBox="0 0 39 50" version="1.1" xmlns="http://www.w3.org/2000/svg" xmlns:xlink="http://www.w3.org/1999/xlink">
    <!-- Generator: Sketch 44.1 (41455) - http://www.bohemiancoding.com/sketch -->
    <title>下载许可</title>
    <desc>Created with Sketch.</desc>
    <defs>
        <polygon id="path-1" points="19.3176543 0 0 0 0 50 19.3176543 50 38.6353085 50 38.6353085 0"></polygon>
    </defs>
    <g id="云数据中心" stroke="none" stroke-width="1" fill="none" fill-rule="evenodd">
        <g id="云数据中心详情-（不为空）下载许可" transform="translate(-232.000000, -92.000000)">
            <g id="下载许可" transform="translate(232.000000, 92.000000)">
                <path d="M30.1049298,22.5 L8.5304617,22.5 C8.07158936,22.5 7.70067447,22.1275 7.70067447,21.6666667 L7.70067447,19.1666667 C7.70067447,18.7058333 8.07158936,18.3333333 8.5304617,18.3333333 L30.1049298,18.3333333 C30.5638021,18.3333333 30.934717,18.7058333 30.934717,19.1666667 L30.934717,21.6666667 C30.934717,22.1275 30.5638021,22.5 30.1049298,22.5" id="Fill-8" fill="#CCCCCC"></path>
                <path d="M16.828334,30.8333333 L8.5304617,30.8333333 C8.07158936,30.8333333 7.70067447,30.4608333 7.70067447,30 L7.70067447,27.5 C7.70067447,27.0391667 8.07158936,26.6666667 8.5304617,26.6666667 L16.828334,26.6666667 C17.2872064,26.6666667 17.6581213,27.0391667 17.6581213,27.5 L17.6581213,30 C17.6581213,30.4608333 17.2872064,30.8333333 16.828334,30.8333333" id="Fill-10" fill="#CCCCCC"></path>
                <path d="M13.5091851,39.1666667 L8.5304617,39.1666667 C8.07158936,39.1666667 7.70067447,38.7941667 7.70067447,38.3333333 L7.70067447,35.8333333 C7.70067447,35.3725 8.07158936,35 8.5304617,35 L13.5091851,35 C13.9680574,35 14.3389723,35.3725 14.3389723,35.8333333 L14.3389723,38.3333333 C14.3389723,38.7941667 13.9680574,39.1666667 13.5091851,39.1666667" id="Fill-12" fill="#CCCCCC"></path>
                <g id="Group-7">
                    <mask id="mask-2" fill="white">
                        <use xlink:href="#path-1"></use>
                    </mask>
                    <g id="Clip-6"></g>
                    <path d="M33.6565851,46.6666667 L4.97830851,46.6666667 C4.0622234,46.6666667 3.31873404,45.92 3.31873404,45 L3.31873404,5 C3.31873404,4.08 4.0622234,3.33333333 4.97830851,3.33333333 L22.6370106,3.33333333 L22.6370106,13.3333333 C22.6370106,14.7141667 23.7505851,15.8333333 25.1263723,15.8333333 L35.3161596,15.8333333 L35.3161596,45 C35.3161596,45.92 34.5726702,46.6666667 33.6565851,46.6666667 M37.9059255,12.2566667 L26.4307979,0.7325 C25.9611383,0.26 25.3354787,0 24.6708191,0 L4.97830851,0 C2.23337234,0 -0.000414893617,2.2425 -0.000414893617,5 L-0.000414893617,45 C-0.000414893617,47.7575 2.23337234,50 4.97830851,50 L33.6565851,50 C36.4023511,50 38.6353085,47.7575 38.6353085,45 L38.6353085,14.0241667 C38.6353085,13.3566667 38.3755851,12.7283333 37.9059255,12.2566667" id="Fill-5" fill="#CCCCCC" mask="url(#mask-2)"></path>
                </g>
                <path d="M38.4028021,39.1666667 C38.4028021,45.15 33.5734404,50 27.6155681,50 C21.6576957,50 16.828334,45.15 16.828334,39.1666667 C16.828334,33.1833333 21.6576957,28.3333333 27.6155681,28.3333333 C33.5734404,28.3333333 38.4028021,33.1833333 38.4028021,39.1666667" id="Fill-1" fill="#7FD9CE"></path>
                <path d="M27.6220404,43.5254167 L27.7332319,43.5254167 L27.6776362,43.5804167 L27.6220404,43.5254167 Z M33.1816149,38.05375 L29.156317,42.0954167 L29.156317,32.2020833 L26.0429553,32.2020833 L26.0429553,41.93875 L22.1744872,38.05375 L19.9722319,40.2645833 L27.1274872,47.4495833 C27.4320191,47.7545833 27.924083,47.7545833 28.2277851,47.4495833 L35.3830404,40.2645833 L33.1816149,38.05375 Z" id="Fill-3" fill="#FFFFFF"></path>
            </g>
        </g>
    </g>
</svg>