<?xml version="1.0" encoding="UTF-8"?>
<svg width="77px" height="93px" viewBox="0 0 77 93" version="1.1" xmlns="http://www.w3.org/2000/svg" xmlns:xlink="http://www.w3.org/1999/xlink">
    <!-- Generator: Sketch 44.1 (41455) - http://www.bohemiancoding.com/sketch -->
    <title>用户管理图标</title>
    <desc>Created with Sketch.</desc>
    <defs>
        <rect id="path-1" x="11" y="2" width="56" height="78"></rect>
        <rect id="path-2" x="8" y="0" width="56" height="78"></rect>
    </defs>
    <g id="云数据中心" stroke="none" stroke-width="1" fill="none" fill-rule="evenodd">
        <g id="云数据中心（无云数据中心）" transform="translate(-1086.000000, -611.000000)">
            <g id="用户管理图标" transform="translate(1086.000000, 611.000000)">
                <g id="Group-20" opacity="0.6">
                    <circle id="Oval" fill="#CBDBE4" cx="38.5" cy="40.5" r="38.5"></circle>
                    <g id="Rectangle">
                        <use fill="#F1F1F1" fill-rule="evenodd" xlink:href="#path-1"></use>
                        <rect stroke="#D9D9D9" stroke-width="1" x="11.5" y="2.5" width="55" height="77"></rect>
                    </g>
                    <g id="Rectangle">
                        <use fill="#FFFFFF" fill-rule="evenodd" xlink:href="#path-2"></use>
                        <rect stroke="#D9D9D9" stroke-width="1" x="8.5" y="0.5" width="55" height="77"></rect>
                    </g>
                    <rect id="Rectangle-3" fill="#9299AF" opacity="0.5" x="18" y="63" width="34.4272461" height="3"></rect>
                    <rect id="Rectangle-3" fill="#9299AF" opacity="0.5" x="18" y="70" width="34.4272461" height="3"></rect>
                    <circle id="Oval-5" fill="#6DD6C9" cx="35.5" cy="80.5" r="12.5"></circle>
                </g>
                <g id="Page-1" transform="translate(30.000000, 45.000000)" fill-opacity="0.425356658" fill="#9299AF">
                    <path d="M6.59994,-6e-05 L6.59994,3.04554 C6.98274,3.12354 7.33734,3.27714 7.65234,3.48714 L9.79434,1.33374 C8.90574,0.60174 7.80534,0.12054 6.59994,-6e-05" id="Fill-1"></path>
                    <path d="M5.39994,8.95482 C4.03194,8.67402 2.99994,7.45602 2.99994,5.99982 C2.99994,4.54362 4.03194,3.32562 5.39994,3.04542 L5.39994,-0.00018 C2.37234,0.30342 -6e-05,2.87802 -6e-05,5.99982 C-6e-05,9.12162 2.37234,11.69622 5.39994,11.99982 L5.39994,8.95482 Z" id="Fill-4"></path>
                    <g id="Group-9" transform="translate(6.600000, 1.800000)">
                        <path d="M4.04292,0.38604 L1.90092,2.54004 C2.21472,3.01644 2.40072,3.58644 2.40072,4.19964 C2.40072,5.65584 1.36812,6.87384 0.00012,7.15464 L0.00012,10.19964 C3.02772,9.89664 5.40012,7.32204 5.40012,4.19964 C5.40012,2.75424 4.89012,1.42584 4.04292,0.38604" id="Fill-7"></path>
                    </g>
                </g>
                <g id="Page-1" transform="translate(28.000000, 76.000000)" fill="#FFFFFF">
                    <path d="M16.2433789,0.341594642 C15.918171,-0.0347597195 15.3767471,-0.109908399 14.9672915,0.165025794 L6.25207395,6.02173507 C5.93629239,6.23435084 5.52860426,6.22518637 5.22107073,5.99974033 L2.1009604,3.70495627 C1.75100845,3.44774006 1.27615782,3.47584444 0.956841396,3.77277337 L0.305836504,4.37762859 C-0.0718052485,4.7289334 -0.104208207,5.33134476 0.234549995,5.72297325 L4.2189356,10.3345361 C4.89527371,11.118404 6.05706706,11.1843882 6.81293971,10.4823896 L16.1667901,1.79202525 C16.5744782,1.41322703 16.6080595,0.76377137 16.2433789,0.341594642" id="Fill-1"></path>
                </g>
                <path d="M18,28.2605507 C18,26.1430463 18.7145381,24.398092 20.1436357,23.0256354 C21.5727334,21.6531788 23.5028576,20.9669608 25.9340664,20.9669608 C28.7138356,20.9669608 30.8138805,21.7729947 32.2342641,23.3850865 C33.3757994,24.683474 33.9465585,26.2824708 33.9465585,28.182125 C33.9465585,30.3170574 33.2385558,32.0663687 31.8225292,33.4301113 C30.4065026,34.7938538 28.4480582,35.4757149 25.9471373,35.4757149 C23.7163508,35.4757149 21.9125778,34.9093127 20.5357642,33.7764914 C18.8452463,32.3735358 18,30.5349073 18,28.2605507 Z M23.3329474,28.2474798 C23.3329474,29.4848692 23.5834715,30.3998265 24.084527,30.9923792 C24.5855826,31.5849318 25.2151604,31.8812037 25.9732792,31.8812037 C26.7401121,31.8812037 27.3696899,31.5892888 27.8620315,31.0054501 C28.354373,30.4216114 28.6005401,29.4848694 28.6005401,28.195196 C28.6005401,26.9926626 28.3521945,26.0973115 27.855496,25.5091158 C27.3587974,24.9209201 26.7444689,24.6268267 26.0124921,24.6268267 C25.2369452,24.6268267 24.5964751,24.9252771 24.0910625,25.5221868 C23.5856499,26.1190964 23.3329474,27.0275184 23.3329474,28.2474798 Z M37.9956482,16 L43.4331633,16 L43.4331633,25.8816379 L47.4067319,21.2806636 L53.9552777,21.2806636 L48.9752459,26.1430569 L54.2428386,35.1620121 L48.2432727,35.1620121 L45.4330185,29.5937876 L43.4331633,31.55443 L43.4331633,35.1620121 L37.9956482,35.1620121 L37.9956482,16 Z" id="ok" fill="#9299AF"></path>
            </g>
        </g>
    </g>
</svg>