<?xml version="1.0" encoding="UTF-8"?>
<svg width="60px" height="60px" viewBox="0 0 60 60" version="1.1" xmlns="http://www.w3.org/2000/svg" xmlns:xlink="http://www.w3.org/1999/xlink">
    <!-- Generator: Sketch 44.1 (41455) - http://www.bohemiancoding.com/sketch -->
    <title>企业默认头像</title>
    <desc>Created with Sketch.</desc>
    <defs></defs>
    <g id="企业中心" stroke="none" stroke-width="1" fill="none" fill-rule="evenodd">
        <g transform="translate(-551.000000, -116.000000)" id="企业默认头像">
            <g transform="translate(551.000000, 116.000000)">
                <circle id="Oval-Copy" fill="#D9D9D9" cx="30" cy="30" r="30"></circle>
                <g id="Group-18" transform="translate(11.000000, 14.000000)" fill="#FFFFFF">
                    <path d="M6.51219512,0 L21.8292683,0 L21.8292683,-4.4408921e-16 C22.9338378,-6.46995335e-16 23.8292683,0.8954305 23.8292683,2 L23.8292683,30.8536585 L4.51219512,30.8536585 L4.51219512,2 L4.51219512,2 C4.51219512,0.8954305 5.40762562,2.02906125e-16 6.51219512,0 L6.51219512,0 Z M9.7804878,8.02439024 C9.29555485,8.02439024 8.90243902,8.41750607 8.90243902,8.90243902 C8.90243902,9.38737198 9.29555485,9.7804878 9.7804878,9.7804878 L18.5609756,9.7804878 C19.0459086,9.7804878 19.4390244,9.38737198 19.4390244,8.90243902 C19.4390244,8.41750607 19.0459086,8.02439024 18.5609756,8.02439024 L9.7804878,8.02439024 Z M9.7804878,14.1707317 C9.29555485,14.1707317 8.90243902,14.5638475 8.90243902,15.0487805 C8.90243902,15.5337134 9.29555485,15.9268293 9.7804878,15.9268293 L18.5609756,15.9268293 C19.0459086,15.9268293 19.4390244,15.5337134 19.4390244,15.0487805 L19.4390244,15.0487805 C19.4390244,14.5638475 19.0459086,14.1707317 18.5609756,14.1707317 L18.5609756,14.1707317 L9.7804878,14.1707317 Z M9.7804878,20.3170732 C9.29555485,20.3170732 8.90243902,20.710189 8.90243902,21.195122 C8.90243902,21.6800549 9.29555485,22.0731707 9.7804878,22.0731707 L18.5609756,22.0731707 C19.0459086,22.0731707 19.4390244,21.6800549 19.4390244,21.195122 C19.4390244,20.710189 19.0459086,20.3170732 18.5609756,20.3170732 L9.7804878,20.3170732 Z" id="Combined-Shape"></path>
                    <rect id="Rectangle-7" x="0" y="29.9756098" width="39.5" height="3.50999999" rx="1.755"></rect>
                    <path d="M26.5853659,11.5365854 L33,11.5365854 L33,11.5365854 C34.1045695,11.5365854 35,12.4320159 35,13.5365854 L35,31.7317073 L26.5853659,31.7317073 L26.5853659,11.5365854 Z" id="Rectangle-4-Copy"></path>
                </g>
            </g>
        </g>
    </g>
</svg>